<svg xmlns="http://www.w3.org/2000/svg" xmlns:xlink="http://www.w3.org/1999/xlink" viewBox="0,0,256,256" width="100px" height="100px" fill-rule="nonzero"><g fill="none" fill-rule="nonzero" stroke="none" stroke-width="1" stroke-linecap="butt" stroke-linejoin="miter" stroke-miterlimit="10" stroke-dasharray="" stroke-dashoffset="0" font-family="none" font-weight="none" font-size="none" text-anchor="none" style="mix-blend-mode: normal"><g transform="scale(2.56,2.56)"><circle cx="52" cy="52" r="44" fill="#ffffff" opacity="0.35"></circle><circle cx="50" cy="50" r="44" fill="#ffffff"></circle><path d="M50,91c-22.607,0 -41,-18.393 -41,-41c0,-22.607 18.393,-41 41,-41c22.607,0 41,18.393 41,41c0,22.607 -18.393,41 -41,41z" fill="#ffffff"></path><circle cx="50.026" cy="50.026" r="38.026" fill="#ef7a54"></circle><g fill="#ffffff"><path d="M54.191,59.581h9.355l1.469,-9.503h-10.826v-5.194c0,-3.948 1.29,-7.449 4.983,-7.449h5.934v-8.293c-1.043,-0.141 -3.248,-0.449 -7.414,-0.449c-8.7,0 -13.801,4.595 -13.801,15.063v6.322h-8.944v9.503h8.944v26.12c1.771,0.266 3.565,0.447 5.407,0.447c1.665,0 3.29,-0.152 4.893,-0.369z"></path></g><g fill="#ffffff"><path d="M50,89c-21.505,0 -39,-17.495 -39,-39c0,-21.505 17.495,-39 39,-39c21.505,0 39,17.495 39,39c0,21.505 -17.495,39 -39,39zM50,14c-19.851,0 -36,16.149 -36,36c0,19.851 16.149,36 36,36c19.851,0 36,-16.149 36,-36c0,-19.851 -16.149,-36 -36,-36z"></path></g></g></g></svg>